<svg id="schnittmase" xmlns="http://www.w3.org/2000/svg" xmlns:xlink="http://www.w3.org/1999/xlink" viewBox="0 0 168 123"><defs><style>.cls-1{fill:none;}.cls-2{clip-path:url(#clip-path);}.cls-3{fill:#4b8796;}</style><clipPath id="clip-path"><rect class="cls-1" x="-0.21" y="-1.44" width="166.42" height="121.89"/></clipPath></defs><g class="cls-2"><g id="network"><g id="network_klein_Kopie" data-name="network klein Kopie"><path class="cls-3" d="M28.4,103.53a22.66,22.66,0,0,1,4.52-16.67c5.54-7.19,15.56-11.73,29.77-13.5l.05.36C48.62,75.48,38.69,80,33.21,87.08a22.29,22.29,0,0,0-4.46,16.41Z"/><path class="cls-3" d="M29.9,103.21a1.35,1.35,0,1,1-1.56-1.1A1.35,1.35,0,0,1,29.9,103.21Z"/><path class="cls-3" d="M66.52,73.14a19.27,19.27,0,0,0-5,3.68l.7-3.14-1.46-2.86A19.19,19.19,0,0,0,66.52,73.14Z"/><path class="cls-3" d="M140.31,104.13H140a21.87,21.87,0,0,0-3.83-11.25c-3.61-5.59-11.48-13.11-28.44-17.2l.09-.35c9.43,2.27,22.06,7.13,28.67,17.37A22.32,22.32,0,0,1,140.31,104.13Z"/><path class="cls-3" d="M104,74.67A19.53,19.53,0,0,0,110,73l-1.75,2.69.37,3.19A19.25,19.25,0,0,0,104,74.67Z"/><path class="cls-3" d="M82.89,108.76l-.33-.15c.07-.15,7.07-15.78,6.7-27h.36C90,92.91,83,108.6,82.89,108.76Z"/><path class="cls-3" d="M89,77.79a19.28,19.28,0,0,0,3.59,5.07l-3.12-.76-2.88,1.42A19.23,19.23,0,0,0,89,77.79Z"/></g><g id="txt_objekte_Kopie" data-name="txt objekte Kopie"><path class="cls-3" d="M22.29,107.75a1.46,1.46,0,0,0-.52.09,1,1,0,0,0-.41.27,1.3,1.3,0,0,0-.27.44,1.89,1.89,0,0,0-.1.6,1.78,1.78,0,0,0,.09.59,1.09,1.09,0,0,0,.25.42,1,1,0,0,0,.41.26,1.44,1.44,0,0,0,.53.09,3.42,3.42,0,0,0,.44,0,1.84,1.84,0,0,0,.42-.1v.6a2.72,2.72,0,0,1-.43.09,3.59,3.59,0,0,1-.47,0,2.2,2.2,0,0,1-.85-.14,1.63,1.63,0,0,1-.61-.38,1.55,1.55,0,0,1-.37-.6,2.41,2.41,0,0,1-.12-.78,2.36,2.36,0,0,1,.13-.8,1.79,1.79,0,0,1,.38-.64,1.64,1.64,0,0,1,.62-.43,2.06,2.06,0,0,1,.84-.16,3.44,3.44,0,0,1,.46,0,3.75,3.75,0,0,1,.39.09v.59c-.16,0-.3-.08-.43-.1Z"/><path class="cls-3" d="M27.36,109.13a2.52,2.52,0,0,1-.12.79,1.66,1.66,0,0,1-.36.62,1.61,1.61,0,0,1-.58.41,2.27,2.27,0,0,1-1.57,0,1.61,1.61,0,0,1-.58-.41,1.66,1.66,0,0,1-.36-.62,2.69,2.69,0,0,1,0-1.59,1.66,1.66,0,0,1,.36-.62,1.61,1.61,0,0,1,.58-.41,2.27,2.27,0,0,1,1.57,0,1.61,1.61,0,0,1,.58.41,1.66,1.66,0,0,1,.36.62A2.53,2.53,0,0,1,27.36,109.13Zm-.71,0a1.87,1.87,0,0,0-.09-.61,1.45,1.45,0,0,0-.23-.43.93.93,0,0,0-.36-.26,1.12,1.12,0,0,0-.45-.08,1.14,1.14,0,0,0-.46.08,1.1,1.1,0,0,0-.36.26,1.26,1.26,0,0,0-.23.43,1.87,1.87,0,0,0-.09.61,1.8,1.8,0,0,0,.09.6,1.26,1.26,0,0,0,.23.43,1.1,1.1,0,0,0,.36.26,1.14,1.14,0,0,0,.46.09,1.13,1.13,0,0,0,.45-.09.93.93,0,0,0,.36-.26,1.45,1.45,0,0,0,.23-.43A1.8,1.8,0,0,0,26.65,109.13Z"/><path class="cls-3" d="M30.85,108.24a.89.89,0,0,1-.12.45.8.8,0,0,1-.36.34h0a2.1,2.1,0,0,1,.26.13.86.86,0,0,1,.2.18.73.73,0,0,1,.13.23.88.88,0,0,1,.05.29,1.17,1.17,0,0,1-.05.3,1.1,1.1,0,0,1-.15.31,1.13,1.13,0,0,1-.3.27,1.51,1.51,0,0,1-.46.2l-.16,0-.18,0-.23,0H28.1v-3.79h1.32a2.15,2.15,0,0,1,.68.09,1.26,1.26,0,0,1,.33.16,1.28,1.28,0,0,1,.24.22,1.05,1.05,0,0,1,.13.26A.92.92,0,0,1,30.85,108.24Zm-1.43.55a1.4,1.4,0,0,0,.42-.05.51.51,0,0,0,.22-.18.48.48,0,0,0,.07-.26.6.6,0,0,0-.07-.27.54.54,0,0,0-.27-.18l-.17,0h-.83v1Zm-.63.58v1.07h.77l.22,0a.67.67,0,0,0,.24-.09.4.4,0,0,0,.16-.12.29.29,0,0,0,.08-.14.51.51,0,0,0,0-.17.45.45,0,0,0-.09-.28.54.54,0,0,0-.27-.18l-.2,0h-.94Z"/><path class="cls-3" d="M33.88,110.06H32.46l-.37,1h-.75l1.51-3.79h.63L35,111h-.74Zm-.72-1.92c-.13.4-.25.73-.35,1l-.13.34h1l-.13-.34c-.1-.27-.22-.6-.35-1Z"/><path class="cls-3" d="M36.22,107.23v3.21H38V111H35.53v-3.79Z"/><path class="cls-3" d="M73.79,113.15h-.7v-3.79h2.42V110H73.79v1h1.47v.58H73.79Z"/><path class="cls-3" d="M77.66,110.94H77.6a1.33,1.33,0,0,0-.54.1.77.77,0,0,0-.36.28v1.83H76v-2.74h.55l.07.38h0a.81.81,0,0,1,.33-.33,1,1,0,0,1,.5-.12h.17Z"/><path class="cls-3" d="M79.27,113.23a1.57,1.57,0,0,1-.69-.14,1.08,1.08,0,0,1-.41-.38,2.33,2.33,0,0,1-.11-.28,1.79,1.79,0,0,1,0-.34v-1.68h.67V112a1.66,1.66,0,0,0,0,.24.51.51,0,0,0,.25.36.73.73,0,0,0,.3.06.71.71,0,0,0,.31-.07.43.43,0,0,0,.19-.21.76.76,0,0,0,.07-.37v-1.62h.67v1.68a1.33,1.33,0,0,1-.11.56,1.46,1.46,0,0,1-.17.24,1.08,1.08,0,0,1-.24.18,1.75,1.75,0,0,1-.32.12A2.35,2.35,0,0,1,79.27,113.23Z"/><path class="cls-3" d="M82.9,113.15a1.81,1.81,0,0,1-.27.06l-.3,0a1.16,1.16,0,0,1-.56-.12.6.6,0,0,1-.31-.32,1.08,1.08,0,0,1-.07-.41V111h-.51v-.55h.51v-.77h.67v.77h.8V111h-.8v1.34a.46.46,0,0,0,0,.23.37.37,0,0,0,.34.13h.23l.22-.05Z"/><path class="cls-3" d="M84.84,112.69a3,3,0,0,0,.4,0,3.45,3.45,0,0,0,.43-.12v.54a2.19,2.19,0,0,1-.39.11,3.53,3.53,0,0,1-.56,0,2,2,0,0,1-.56-.08,1.15,1.15,0,0,1-.45-.24,1.27,1.27,0,0,1-.32-.43,2,2,0,0,1,0-1.3,1.29,1.29,0,0,1,.29-.47,1.22,1.22,0,0,1,.41-.27,1.19,1.19,0,0,1,.49-.1,1.4,1.4,0,0,1,.47.08,1,1,0,0,1,.38.25,1.11,1.11,0,0,1,.25.44,2,2,0,0,1,.09.63,1.63,1.63,0,0,1,0,.24H84a1,1,0,0,0,.09.33.67.67,0,0,0,.19.22.89.89,0,0,0,.26.12A1.76,1.76,0,0,0,84.84,112.69Zm-.28-1.82a.51.51,0,0,0-.22,0,.45.45,0,0,0-.17.13.62.62,0,0,0-.12.19.86.86,0,0,0,0,.23h1.08a.85.85,0,0,0,0-.23A.56.56,0,0,0,85,111a.65.65,0,0,0-.16-.13A.56.56,0,0,0,84.56,110.87Z"/><path class="cls-3" d="M88,110.94H88a1.3,1.3,0,0,0-.54.1.68.68,0,0,0-.36.28v1.83H86.4v-2.74H87l.06.38h0a.87.87,0,0,1,.33-.33,1,1,0,0,1,.5-.12H88Z"/><path class="cls-3" d="M90,112.86h0l-.14.13a.78.78,0,0,1-.18.11.85.85,0,0,1-.22.09.86.86,0,0,1-.28,0,1.09,1.09,0,0,1-.36-.06.79.79,0,0,1-.29-.18.77.77,0,0,1-.19-.28.86.86,0,0,1-.07-.36,1,1,0,0,1,.08-.4.93.93,0,0,1,.22-.3,1.06,1.06,0,0,1,.35-.18,1.5,1.5,0,0,1,.44-.07,1.69,1.69,0,0,1,.33,0l.27,0v-.11a.53.53,0,0,0,0-.18.34.34,0,0,0-.1-.16.4.4,0,0,0-.19-.11.79.79,0,0,0-.28,0,1.9,1.9,0,0,0-.41,0,2.78,2.78,0,0,0-.44.14v-.53a3.09,3.09,0,0,1,.43-.14,2.63,2.63,0,0,1,.49,0,1.69,1.69,0,0,1,.53.08.82.82,0,0,1,.37.2.93.93,0,0,1,.23.3,1,1,0,0,1,.08.39v1.5c0,.13,0,.24,0,.34h-.6ZM90,112l-.23,0h-.25a.75.75,0,0,0-.39.09.36.36,0,0,0-.14.3.47.47,0,0,0,0,.17.31.31,0,0,0,.09.11l.13.07.15,0a.64.64,0,0,0,.2,0,.76.76,0,0,0,.16-.06.5.5,0,0,0,.14-.1l.11-.09Z"/><path class="cls-3" d="M77.94,118V114.2h.69V118Z"/><path class="cls-3" d="M80.07,115.63h0a1.14,1.14,0,0,1,.15-.17l.2-.14a.82.82,0,0,1,.26-.1,1,1,0,0,1,.3,0,1.36,1.36,0,0,1,.29,0,.76.76,0,0,1,.26.11.61.61,0,0,1,.2.19.69.69,0,0,1,.14.27.58.58,0,0,1,0,.19,1.77,1.77,0,0,1,0,.24V118h-.67v-1.68a1.15,1.15,0,0,0,0-.19.25.25,0,0,0,0-.13.37.37,0,0,0-.15-.19.51.51,0,0,0-.25-.06.85.85,0,0,0-.38.09.91.91,0,0,0-.32.27V118h-.67v-2.74H80Z"/><path class="cls-3" d="M84.34,118a1.46,1.46,0,0,1-.27.05l-.29,0a1.27,1.27,0,0,1-.56-.11.6.6,0,0,1-.31-.32.94.94,0,0,1-.07-.41V115.8h-.51v-.55h.51v-.77h.67v.77h.8v.55h-.8v1.33a.48.48,0,0,0,0,.24.4.4,0,0,0,.34.13l.23,0,.21,0Z"/><path class="cls-3" d="M85,117.23h.76V118H85Z"/><path class="cls-3" d="M132.33,107.19a1.51,1.51,0,0,0-.53.09,1.42,1.42,0,0,0-.41.28,1.12,1.12,0,0,0-.26.44,1.57,1.57,0,0,0-.1.6,1.72,1.72,0,0,0,.09.58,1.22,1.22,0,0,0,.25.43,1,1,0,0,0,.4.25,1.53,1.53,0,0,0,.54.09,2.25,2.25,0,0,0,.44,0,2.59,2.59,0,0,0,.42-.09v.59a3,3,0,0,1-.43.09,2.52,2.52,0,0,1-.48,0,2.38,2.38,0,0,1-.84-.14,1.53,1.53,0,0,1-.61-.39,1.68,1.68,0,0,1-.37-.6,2.35,2.35,0,0,1-.12-.77,2.37,2.37,0,0,1,.13-.81,1.73,1.73,0,0,1,.38-.64,1.76,1.76,0,0,1,.62-.43,2.46,2.46,0,0,1,.84-.16,3.42,3.42,0,0,1,.46,0,1.93,1.93,0,0,1,.38.09v.59a2.53,2.53,0,0,0-.42-.1Z"/><path class="cls-3" d="M136.41,109.09a1.59,1.59,0,0,1-.1.59,1.24,1.24,0,0,1-.27.46,1.21,1.21,0,0,1-.44.29,1.48,1.48,0,0,1-.57.11,1.54,1.54,0,0,1-.58-.11,1.17,1.17,0,0,1-.43-.29,1.42,1.42,0,0,1-.28-.46,1.83,1.83,0,0,1-.09-.59,1.87,1.87,0,0,1,.09-.59,1.48,1.48,0,0,1,.28-.45,1.09,1.09,0,0,1,.44-.29,1.48,1.48,0,0,1,.57-.11,1.54,1.54,0,0,1,.58.11,1.06,1.06,0,0,1,.43.29,1.29,1.29,0,0,1,.27.45A1.63,1.63,0,0,1,136.41,109.09Zm-.7,0a1.13,1.13,0,0,0-.05-.38.74.74,0,0,0-.14-.28.52.52,0,0,0-.22-.17.63.63,0,0,0-.27-.06.67.67,0,0,0-.28.06.56.56,0,0,0-.21.17.92.92,0,0,0-.15.28,1.46,1.46,0,0,0,0,.38,1.48,1.48,0,0,0,0,.39,1.06,1.06,0,0,0,.15.28.62.62,0,0,0,.22.17.6.6,0,0,0,.27.06.67.67,0,0,0,.28-.06.68.68,0,0,0,.21-.17.82.82,0,0,0,.14-.28A1.15,1.15,0,0,0,135.71,109.09Z"/><path class="cls-3" d="M139.64,109a1.69,1.69,0,0,1-.11.66,1.28,1.28,0,0,1-.28.47,1,1,0,0,1-.39.28,1.15,1.15,0,0,1-.44.09,1.18,1.18,0,0,1-.28,0,1.12,1.12,0,0,1-.22-.1c-.06,0-.11-.08-.16-.11l-.1-.12h0l-.06.29H137a2.63,2.63,0,0,0,0-.3c0-.12,0-.23,0-.34v-3.46h.67v1.37a.71.71,0,0,1,0,.16h0l.14-.09.17-.07a1.06,1.06,0,0,1,.19-.06l.22,0a1.13,1.13,0,0,1,.45.09,1,1,0,0,1,.38.25,1,1,0,0,1,.27.44A1.66,1.66,0,0,1,139.64,109Zm-.69,0a1.16,1.16,0,0,0-.07-.44.67.67,0,0,0-.16-.29.52.52,0,0,0-.21-.13.78.78,0,0,0-.22,0,.89.89,0,0,0-.3.06.92.92,0,0,0-.27.16v1.31a1.94,1.94,0,0,0,.23.19l.15.06a.57.57,0,0,0,.18,0,.54.54,0,0,0,.29-.07.52.52,0,0,0,.21-.18,1,1,0,0,0,.13-.29A2.22,2.22,0,0,0,139,109.08Z"/><path class="cls-3" d="M140.24,106.36h.7v.73h-.7Zm0,1.36h.67v2.74h-.67Z"/><path class="cls-3" d="M143.46,110.54v-.14a.53.53,0,0,1,0-.14h0l-.14.1-.18.09a1.05,1.05,0,0,1-.21.06,1,1,0,0,1-.24,0,1.16,1.16,0,0,1-.42-.08.94.94,0,0,1-.37-.25,1.08,1.08,0,0,1-.26-.43,1.74,1.74,0,0,1-.1-.63,1.81,1.81,0,0,1,.1-.65,1.4,1.4,0,0,1,.26-.47,1,1,0,0,1,.39-.28,1,1,0,0,1,.45-.1.93.93,0,0,1,.44.11.94.94,0,0,1,.32.27h0l0-.31h.59v2.8a1.62,1.62,0,0,1,0,.41,1,1,0,0,1-.11.31,1.18,1.18,0,0,1-.23.27,1.35,1.35,0,0,1-.33.19,1.6,1.6,0,0,1-.39.11,2.28,2.28,0,0,1-.45,0h-.27a1,1,0,0,1-.25,0l-.21,0-.16,0v-.54a2.59,2.59,0,0,0,.4.09,2.9,2.9,0,0,0,.43,0,1.14,1.14,0,0,0,.69-.17.6.6,0,0,0,.25-.53Zm-.6-.54.19,0,.17-.07.14-.09.1-.09V108.5a.71.71,0,0,0-.27-.21.66.66,0,0,0-.33-.09h-.13a.59.59,0,0,0-.14.06.49.49,0,0,0-.14.11.64.64,0,0,0-.11.16,1.23,1.23,0,0,0-.08.25,1.55,1.55,0,0,0,0,.33,1.45,1.45,0,0,0,0,.37.85.85,0,0,0,.12.27.49.49,0,0,0,.2.18A.6.6,0,0,0,142.86,110Z"/><path class="cls-3" d="M146.08,110.54a1.49,1.49,0,0,1-.68-.14A1,1,0,0,1,145,110a1.33,1.33,0,0,1-.1-.28,1.27,1.27,0,0,1,0-.34v-1.68h.67v1.61a1.66,1.66,0,0,0,0,.24.85.85,0,0,0,.06.17.52.52,0,0,0,.2.19.65.65,0,0,0,.29.06.71.71,0,0,0,.31-.07.43.43,0,0,0,.19-.21.76.76,0,0,0,.07-.37v-1.62h.67v1.68a1.33,1.33,0,0,1-.11.56,1,1,0,0,1-.17.24.94.94,0,0,1-.25.18,1.43,1.43,0,0,1-.31.12A2.35,2.35,0,0,1,146.08,110.54Z"/><path class="cls-3" d="M149.64,110.17h0l-.13.12a.94.94,0,0,1-.18.12.92.92,0,0,1-.23.09.77.77,0,0,1-.27,0,1.15,1.15,0,0,1-.37-.06.88.88,0,0,1-.29-.18A.92.92,0,0,1,148,110a.86.86,0,0,1-.07-.36,1,1,0,0,1,.08-.4.86.86,0,0,1,.23-.3.92.92,0,0,1,.34-.18,1.63,1.63,0,0,1,.45-.07,1.69,1.69,0,0,1,.33,0l.26.05v-.11a.52.52,0,0,0,0-.18.36.36,0,0,0-.11-.16.42.42,0,0,0-.18-.11.85.85,0,0,0-.29,0,2,2,0,0,0-.41,0,3.64,3.64,0,0,0-.44.14v-.53a3.22,3.22,0,0,1,.44-.14,2.63,2.63,0,0,1,.49,0,1.62,1.62,0,0,1,.52.08.86.86,0,0,1,.38.2,1.09,1.09,0,0,1,.23.3,1,1,0,0,1,.07.39v1c0,.18,0,.34,0,.47s0,.24,0,.34h-.61Zm0-.87-.22,0-.25,0a.7.7,0,0,0-.39.1.34.34,0,0,0-.15.3.47.47,0,0,0,0,.17.31.31,0,0,0,.09.11.47.47,0,0,0,.12.07l.16,0a.58.58,0,0,0,.19,0,.85.85,0,0,0,.17-.06.71.71,0,0,0,.14-.1l.1-.09Z"/><path class="cls-3" d="M98.37,62.86l-.09-.35a104,104,0,0,0,15.51-5.21c8.13-3.52,13.64-7.48,16.37-11.75l.31.19c-2.77,4.34-8.34,8.34-16.54,11.89A105.64,105.64,0,0,1,98.37,62.86Z"/><path class="cls-3" d="M98.73,64a1.35,1.35,0,1,1,1-1.64A1.34,1.34,0,0,1,98.73,64Z"/><path class="cls-3" d="M72.56,62.75c-5.49-2.16-13.94-9.77-21-19-8.19-10.6-12.88-21-12.88-28.67H39c0,7.54,4.67,17.91,12.8,28.45,7.06,9.14,15.45,16.71,20.88,18.85Z"/><path class="cls-3" d="M73,61.27a1.35,1.35,0,1,1-1.71.85A1.36,1.36,0,0,1,73,61.27Z"/><path class="cls-3" d="M7.88,24.56l-.29-.21c2.27-3,8.9-10,21.54-10v.36C16.65,14.72,10.11,21.6,7.88,24.56Z"/><path class="cls-3" d="M8.89,25.19a1.35,1.35,0,1,1-.32-1.88A1.35,1.35,0,0,1,8.89,25.19Z"/><path class="cls-3" d="M58.42,23.5c-1.76-2.76-6.68-9.12-14.45-8.78l0-.36c7.94-.37,13,6.14,14.77,9Z"/><path class="cls-3" d="M59.67,22.65a1.37,1.37,0,0,1-.45,1.86,1.35,1.35,0,1,1-1.41-2.31A1.37,1.37,0,0,1,59.67,22.65Z"/><path class="cls-3" d="M29.8,25.83c-.1-2.21.1-7.72,4.15-11.18l.24.27c-3.94,3.36-4.13,8.74-4,10.9Z"/><path class="cls-3" d="M31.32,25.64a1.35,1.35,0,1,1-1.46-1.23A1.36,1.36,0,0,1,31.32,25.64Z"/><path class="cls-3" d="M136.84,36.83l-.07-.35c9.27-1.82,16.75-10.35,20.38-15.28l.29.21C153.78,26.38,146.23,35,136.84,36.83Z"/><path class="cls-3" d="M159.11,18.67A16.44,16.44,0,0,1,154.44,21l2.6.69,1.55,2.2A16,16,0,0,1,159.11,18.67Z"/><path class="cls-3" d="M136.64,35.68a1,1,0,0,0-.72,1.13.95.95,0,0,0,1.85-.4A1,1,0,0,0,136.64,35.68Z"/><path class="cls-3" d="M123,34.13c-5.29-1.91-12-10.21-15.49-15l.29-.22c3.49,4.75,10.12,13,15.32,14.87Z"/><path class="cls-3" d="M105.82,16.42a16,16,0,0,1,.59,5.16l1.52-2.21,2.59-.73A16.16,16.16,0,0,1,105.82,16.42Z"/><path class="cls-3" d="M122.75,34.81a.94.94,0,0,0,1.19-.59.94.94,0,1,0-1.19.59Z"/><path class="cls-3" d="M132.14,30.43l-.28-.22c2.18-2.76,1.6-7,.73-10.16l.34-.1C133.83,23.14,134.42,27.55,132.14,30.43Z"/><path class="cls-3" d="M131.7,17a16,16,0,0,1-.91,5.11l2.09-1.68,2.69,0A16.08,16.08,0,0,1,131.7,17Z"/><path class="cls-3" d="M131.3,29.65a1,1,0,0,0,.09,1.33.94.94,0,0,0,1.33-.08,1,1,0,0,0-.08-1.34A1,1,0,0,0,131.3,29.65Z"/><path class="cls-3" d="M31,7a.39.39,0,0,0-.08-.25.58.58,0,0,0-.21-.16,1.63,1.63,0,0,0-.29-.1L30,6.46l-.45-.12a1.52,1.52,0,0,1-.38-.2A.82.82,0,0,1,29,5.82a1.14,1.14,0,0,1-.1-.48A1.19,1.19,0,0,1,29,4.78a1,1,0,0,1,.3-.4,1.37,1.37,0,0,1,.45-.23,2.1,2.1,0,0,1,.59-.08,3.66,3.66,0,0,1,.65.06,3.39,3.39,0,0,1,.56.17v.64a3.17,3.17,0,0,0-.6-.19,3.74,3.74,0,0,0-.55,0,1,1,0,0,0-.56.13.43.43,0,0,0-.2.4.5.5,0,0,0,.06.26.56.56,0,0,0,.18.16,1,1,0,0,0,.26.11l.31.07c.17,0,.33.08.49.12a1.63,1.63,0,0,1,.42.2,1.15,1.15,0,0,1,.29.33,1.19,1.19,0,0,1,.1.53,1.22,1.22,0,0,1-.12.56,1.1,1.1,0,0,1-.34.4,1.45,1.45,0,0,1-.55.23,3,3,0,0,1-.69.08,2.81,2.81,0,0,1-.65-.07A1.8,1.8,0,0,1,28.83,8V7.4A2.89,2.89,0,0,0,30,7.65a2.07,2.07,0,0,0,.35,0,1,1,0,0,0,.3-.1.57.57,0,0,0,.22-.19A.52.52,0,0,0,31,7Z"/><path class="cls-3" d="M34.18,7.89h0L34,8a1.37,1.37,0,0,1-.2.13.85.85,0,0,1-.24.09.92.92,0,0,1-.29,0,1,1,0,0,1-.39-.07A.79.79,0,0,1,32.6,8a1,1,0,0,1-.21-.3,1,1,0,0,1-.07-.39,1.18,1.18,0,0,1,.08-.43.92.92,0,0,1,.24-.31A1,1,0,0,1,33,6.4a1.41,1.41,0,0,1,.47-.07l.35,0,.29.06V6.29a.71.71,0,0,0,0-.2A.45.45,0,0,0,34,5.92a.75.75,0,0,0-.2-.11,1,1,0,0,0-.31,0,2.1,2.1,0,0,0-.43,0,2.62,2.62,0,0,0-.48.15V5.4A1.92,1.92,0,0,1,33,5.25a2.12,2.12,0,0,1,.52-.06,1.89,1.89,0,0,1,.56.08,1.18,1.18,0,0,1,.4.22.82.82,0,0,1,.24.32,1,1,0,0,1,.08.41V7.33c0,.19,0,.36,0,.5s0,.26,0,.37h-.65Zm0-.94-.24,0a1.23,1.23,0,0,0-.27,0,.73.73,0,0,0-.42.1.37.37,0,0,0-.15.32.48.48,0,0,0,0,.18.58.58,0,0,0,.1.12l.13.07a.51.51,0,0,0,.17,0,.71.71,0,0,0,.21,0l.18-.08L34,7.5l.11-.1Z"/><path class="cls-3" d="M37.49,4.4l-.24-.06-.24,0a.78.78,0,0,0-.22,0,.54.54,0,0,0-.16.1.39.39,0,0,0-.09.17.68.68,0,0,0,0,.26v.38h.82v.6H36.5V8.2h-.72V5.86h-.49v-.6h.49V4.92a1.45,1.45,0,0,1,.09-.54A1,1,0,0,1,36.11,4a1,1,0,0,1,.37-.22,1.63,1.63,0,0,1,.45-.06l.3,0a1.38,1.38,0,0,1,.26.07Z"/><path class="cls-3" d="M39.43,5.84h0a1.74,1.74,0,0,0-.59.09.88.88,0,0,0-.38.3v2h-.72V5.26h.59l.07.41h0a1,1,0,0,1,.35-.35,1.13,1.13,0,0,1,.54-.13h.18Z"/><path class="cls-3" d="M41.59,7.89h0a1,1,0,0,1-.15.13l-.19.13a1.06,1.06,0,0,1-.25.09.85.85,0,0,1-.29,0,1,1,0,0,1-.39-.07A.87.87,0,0,1,40,8a1,1,0,0,1-.2-.3,1,1,0,0,1,0-.82.92.92,0,0,1,.24-.31,1,1,0,0,1,.37-.2,1.43,1.43,0,0,1,.48-.07l.35,0,.28.06V6.29a.48.48,0,0,0,0-.2.45.45,0,0,0-.11-.17.75.75,0,0,0-.2-.11.85.85,0,0,0-.3,0,2.2,2.2,0,0,0-.44,0A2.53,2.53,0,0,0,40,6V5.4a1.84,1.84,0,0,1,.47-.15A2.18,2.18,0,0,1,41,5.19a1.84,1.84,0,0,1,.56.08,1.23,1.23,0,0,1,.41.22,1.08,1.08,0,0,1,.24.32,1.15,1.15,0,0,1,.08.41V7.83c0,.14,0,.26,0,.37h-.65ZM41.53,7l-.24,0a1.23,1.23,0,0,0-.27,0,.71.71,0,0,0-.41.1.35.35,0,0,0-.16.32.4.4,0,0,0,.13.3l.14.07a.47.47,0,0,0,.17,0,.64.64,0,0,0,.2,0,.75.75,0,0,0,.18-.08.56.56,0,0,0,.15-.1l.11-.1Z"/><path class="cls-3" d="M30.29,11.83h-.91v-.62H31v2a1,1,0,0,1-.23.07l-.32.07-.36,0h-.37a3,3,0,0,1-.95-.14,1.87,1.87,0,0,1-.68-.42,1.74,1.74,0,0,1-.4-.63,2.17,2.17,0,0,1-.14-.82,2.35,2.35,0,0,1,.07-.6,2.25,2.25,0,0,1,.21-.53,1.79,1.79,0,0,1,.34-.44,2.22,2.22,0,0,1,.45-.34,2.25,2.25,0,0,1,.55-.21,2.7,2.7,0,0,1,.65-.07,3.6,3.6,0,0,1,.58,0,2,2,0,0,1,.45.11V10a3.74,3.74,0,0,0-.48-.12,3.88,3.88,0,0,0-.48,0,1.79,1.79,0,0,0-.62.1,1.46,1.46,0,0,0-.5.29,1.37,1.37,0,0,0-.33.48,1.6,1.6,0,0,0-.12.65,1.43,1.43,0,0,0,.37,1.08,1.46,1.46,0,0,0,1.06.36l.26,0,.25,0Z"/><path class="cls-3" d="M33.59,11h-.06a1.5,1.5,0,0,0-.58.1.83.83,0,0,0-.39.3v2h-.71V10.44h.59l.07.41h0a.91.91,0,0,1,.35-.35,1,1,0,0,1,.53-.13h.19Z"/><path class="cls-3" d="M36.82,11.91a2.08,2.08,0,0,1-.1.63,1.44,1.44,0,0,1-.3.49,1.33,1.33,0,0,1-.46.31,1.77,1.77,0,0,1-1.23,0,1.29,1.29,0,0,1-.47-.31,1.42,1.42,0,0,1-.29-.49,2,2,0,0,1,0-1.26,1.44,1.44,0,0,1,.3-.49,1.25,1.25,0,0,1,.46-.31,1.51,1.51,0,0,1,.61-.11,1.56,1.56,0,0,1,.62.11,1.25,1.25,0,0,1,.46.31,1.44,1.44,0,0,1,.3.49A2.08,2.08,0,0,1,36.82,11.91Zm-.74,0A1.27,1.27,0,0,0,36,11.5a1.05,1.05,0,0,0-.15-.3.58.58,0,0,0-.23-.18.73.73,0,0,0-.3-.06.68.68,0,0,0-.53.24,1.05,1.05,0,0,0-.15.3,1.71,1.71,0,0,0,0,.82.86.86,0,0,0,.16.3.58.58,0,0,0,.23.18.73.73,0,0,0,.3.07.73.73,0,0,0,.29-.07.58.58,0,0,0,.23-.18,1.05,1.05,0,0,0,.15-.3A1.27,1.27,0,0,0,36.08,11.91Z"/><path class="cls-3" d="M38.75,13.45A1.58,1.58,0,0,1,38,13.3a1.07,1.07,0,0,1-.44-.4,1.34,1.34,0,0,1-.12-.3,2.05,2.05,0,0,1,0-.37V10.44h.71v1.72a1.69,1.69,0,0,0,0,.25.69.69,0,0,0,.07.19.48.48,0,0,0,.2.2.79.79,0,0,0,.32.07.64.64,0,0,0,.33-.08.41.41,0,0,0,.21-.22.87.87,0,0,0,.07-.4V10.44h.72v1.79a1.41,1.41,0,0,1-.12.61,1.14,1.14,0,0,1-.18.25,1.28,1.28,0,0,1-.26.2,1.7,1.7,0,0,1-.34.12A1.91,1.91,0,0,1,38.75,13.45Z"/><path class="cls-3" d="M42.31,13.45a1.18,1.18,0,0,1-.43-.08,1.07,1.07,0,0,1-.32-.22h0a1.16,1.16,0,0,0,0,.17v1.47h-.72V10.44h.63l0,.33h0a.91.91,0,0,1,.35-.29.92.92,0,0,1,.48-.11,1.27,1.27,0,0,1,.47.09,1.13,1.13,0,0,1,.41.27,1.29,1.29,0,0,1,.29.47,1.88,1.88,0,0,1,.11.67,1.83,1.83,0,0,1-.12.7,1.62,1.62,0,0,1-.3.5,1.2,1.2,0,0,1-.89.38Zm-.09-2.51a.88.88,0,0,0-.36.1.76.76,0,0,0-.3.24v1.31a.55.55,0,0,0,.11.1.67.67,0,0,0,.14.09l.17.07a.69.69,0,0,0,.2,0,.6.6,0,0,0,.3-.07.7.7,0,0,0,.22-.2,1.26,1.26,0,0,0,.13-.31,2.12,2.12,0,0,0,0-.82.83.83,0,0,0-.14-.3.49.49,0,0,0-.2-.18A.63.63,0,0,0,42.22,10.94Z"/><path class="cls-3" d="M6.84,28.14a.77.77,0,0,1-.1.4.74.74,0,0,1-.32.31h0a1,1,0,0,1,.23.11.69.69,0,0,1,.18.16.53.53,0,0,1,.11.21.67.67,0,0,1,0,.26.85.85,0,0,1,0,.26.68.68,0,0,1-.13.27,1.09,1.09,0,0,1-.27.25,1.43,1.43,0,0,1-.41.18l-.14,0-.16,0H4.39V27.24H5.57a1.93,1.93,0,0,1,.6.08.83.83,0,0,1,.3.14,1,1,0,0,1,.21.2.85.85,0,0,1,.12.23A.77.77,0,0,1,6.84,28.14Zm-1.27.49A1,1,0,0,0,6,28.58a.38.38,0,0,0,.19-.16.45.45,0,0,0,.07-.23A.41.41,0,0,0,6.13,28a.36.36,0,0,0-.23-.15.37.37,0,0,0-.15,0H5v.87ZM5,29.15v1h.68l.2,0A.93.93,0,0,0,6.11,30a.38.38,0,0,0,.14-.11.27.27,0,0,0,.07-.13.34.34,0,0,0,0-.15.43.43,0,0,0-.07-.25A.57.57,0,0,0,6,29.19l-.17,0H5Z"/><path class="cls-3" d="M9,30.36H9a.65.65,0,0,1-.12.11l-.16.11a1,1,0,0,1-.21.07.59.59,0,0,1-.23,0,.88.88,0,0,1-.33-.06.76.76,0,0,1-.26-.16.7.7,0,0,1-.17-.24.88.88,0,0,1-.06-.33.78.78,0,0,1,.07-.35.76.76,0,0,1,.2-.27A1,1,0,0,1,8,29.12a1.23,1.23,0,0,1,.39-.06l.3,0,.23.05V29a.51.51,0,0,0,0-.17.42.42,0,0,0-.09-.14.39.39,0,0,0-.17-.09.62.62,0,0,0-.25,0,1.61,1.61,0,0,0-.37,0,2.43,2.43,0,0,0-.39.12v-.47A2.52,2.52,0,0,1,8,28.16a2,2,0,0,1,.44-.05,1.37,1.37,0,0,1,.47.07.88.88,0,0,1,.33.18.73.73,0,0,1,.2.27.77.77,0,0,1,.07.34v.92c0,.17,0,.31,0,.42a2.91,2.91,0,0,0,0,.31H9Zm-.05-.78a.88.88,0,0,0-.2,0H8.51a.61.61,0,0,0-.35.08.4.4,0,0,0-.1.41.44.44,0,0,0,.08.11l.12.06.14,0a.51.51,0,0,0,.17,0,.47.47,0,0,0,.15-.06L8.84,30A.38.38,0,0,0,8.93,30Z"/><path class="cls-3" d="M10.75,28.52h0a.37.37,0,0,1,.13-.15.59.59,0,0,1,.18-.13.92.92,0,0,1,.23-.09.77.77,0,0,1,.27,0,1.15,1.15,0,0,1,.26,0,.67.67,0,0,1,.23.1.9.9,0,0,1,.18.16.83.83,0,0,1,.12.25.85.85,0,0,1,0,.17c0,.06,0,.13,0,.21v1.59h-.6V29.13c0-.07,0-.13,0-.17a.5.5,0,0,0,0-.13.28.28,0,0,0-.14-.16.38.38,0,0,0-.22-.05.62.62,0,0,0-.33.08.73.73,0,0,0-.29.24v1.68h-.6V28.17h.5Z"/><path class="cls-3" d="M13.1,27h.6v2.21h0l.93-1h.74l-1.07,1.15,1.08,1.3h-.72l-1-1.14h0v1.14h-.6Z"/><path class="cls-3" d="M3.53,34.83a.33.33,0,0,0-.06-.21.37.37,0,0,0-.17-.13.92.92,0,0,0-.25-.08l-.28-.07a3.29,3.29,0,0,1-.37-.1,1,1,0,0,1-.32-.16.73.73,0,0,1-.22-.27,1,1,0,0,1-.08-.4,1.13,1.13,0,0,1,.09-.47,1.06,1.06,0,0,1,.26-.33,1,1,0,0,1,.37-.19A1.87,1.87,0,0,1,3,32.35a2.48,2.48,0,0,1,.54.06,2.43,2.43,0,0,1,.47.13v.53a2.57,2.57,0,0,0-.5-.15,2.45,2.45,0,0,0-.46,0,.82.82,0,0,0-.47.11.36.36,0,0,0-.16.33.41.41,0,0,0,0,.21.5.5,0,0,0,.15.14.63.63,0,0,0,.22.09l.25.06.41.1a1.27,1.27,0,0,1,.35.17.73.73,0,0,1,.24.28.89.89,0,0,1,.09.43,1.12,1.12,0,0,1-.1.47.78.78,0,0,1-.29.33,1.16,1.16,0,0,1-.45.2,2.65,2.65,0,0,1-.58.06,3.29,3.29,0,0,1-.54,0,1.57,1.57,0,0,1-.45-.16v-.52a3.49,3.49,0,0,0,.49.16,2.63,2.63,0,0,0,.49.05,1.36,1.36,0,0,0,.29,0,.67.67,0,0,0,.25-.08.4.4,0,0,0,.18-.16A.38.38,0,0,0,3.53,34.83Z"/><path class="cls-3" d="M6.22,35.54h0l-.12.11-.16.1-.2.08a1,1,0,0,1-.24,0,1.14,1.14,0,0,1-.33,0,.76.76,0,0,1-.26-.16.74.74,0,0,1-.17-.25.83.83,0,0,1-.06-.32.76.76,0,0,1,.27-.62,1,1,0,0,1,.31-.17,1.25,1.25,0,0,1,.4-.06,1.36,1.36,0,0,1,.29,0l.23,0v-.1a.45.45,0,0,0,0-.16.42.42,0,0,0-.09-.14.4.4,0,0,0-.17-.1.62.62,0,0,0-.25,0,2.2,2.2,0,0,0-.36,0l-.4.12v-.46a1.63,1.63,0,0,1,.39-.13,2.12,2.12,0,0,1,.44,0,1.68,1.68,0,0,1,.47.06,1.29,1.29,0,0,1,.33.18.83.83,0,0,1,.21.28.9.9,0,0,1,.06.34v.92c0,.16,0,.3,0,.42a3,3,0,0,0,0,.31H6.25Zm0-.79-.19,0-.23,0a.61.61,0,0,0-.35.09.3.3,0,0,0-.12.26.61.61,0,0,0,0,.15.31.31,0,0,0,.2.16.32.32,0,0,0,.14,0l.17,0L6,35.3l.12-.08.09-.09Z"/><path class="cls-3" d="M8.9,33.82H8.85a1.17,1.17,0,0,0-.48.09.64.64,0,0,0-.33.25V35.8h-.6V33.35h.5l.06.34H8a.83.83,0,0,1,.3-.29.78.78,0,0,1,.44-.11H8.9Z"/><path class="cls-3" d="M10.69,35.54h0l-.12.11-.16.1-.2.08a1,1,0,0,1-.24,0,1.14,1.14,0,0,1-.33,0,.76.76,0,0,1-.26-.16.74.74,0,0,1-.17-.25.83.83,0,0,1-.06-.32.76.76,0,0,1,.27-.62,1,1,0,0,1,.31-.17,1.25,1.25,0,0,1,.4-.06,1.36,1.36,0,0,1,.29,0l.23,0v-.1a.44.44,0,0,0,0-.16.33.33,0,0,0-.1-.14.44.44,0,0,0-.16-.1.68.68,0,0,0-.26,0,2.2,2.2,0,0,0-.36,0l-.4.12v-.46a2,2,0,0,1,.39-.13,2.12,2.12,0,0,1,.44,0,1.68,1.68,0,0,1,.47.06,1.29,1.29,0,0,1,.33.18.83.83,0,0,1,.21.28.9.9,0,0,1,.06.34v.92c0,.16,0,.3,0,.42s0,.22,0,.31h-.54Zm0-.79-.19,0-.23,0a.57.57,0,0,0-.34.09.28.28,0,0,0-.13.26.33.33,0,0,0,0,.15.2.2,0,0,0,.08.1.24.24,0,0,0,.11.06.34.34,0,0,0,.14,0l.17,0,.15-.06.12-.08.09-.09Z"/><path class="cls-3" d="M13,35.09A.18.18,0,0,0,13,35a.38.38,0,0,0-.12-.09l-.17-.06-.2-.05-.25-.08a.72.72,0,0,1-.21-.12.7.7,0,0,1-.15-.19.61.61,0,0,1-.06-.28.8.8,0,0,1,.08-.36.69.69,0,0,1,.2-.25.87.87,0,0,1,.29-.14,1,1,0,0,1,.35-.05,2.77,2.77,0,0,1,.42,0l.36.1v.49l-.18-.06-.19,0-.18,0h-.18l-.18,0-.12.06a.27.27,0,0,0-.07.08.29.29,0,0,0,0,.09.19.19,0,0,0,0,.13.27.27,0,0,0,.12.09l.16,0,.17.05.25.07a.84.84,0,0,1,.23.12.67.67,0,0,1,.17.2.68.68,0,0,1,.06.31.8.8,0,0,1-.08.36.68.68,0,0,1-.22.26.84.84,0,0,1-.33.15,2,2,0,0,1-.43,0,1.76,1.76,0,0,1-.42,0,1.14,1.14,0,0,1-.31-.09v-.48a2.06,2.06,0,0,0,.37.1,1.67,1.67,0,0,0,.31,0h.2a.69.69,0,0,0,.17,0,.53.53,0,0,0,.11-.09A.2.2,0,0,0,13,35.09Z"/><path class="cls-3" d="M14.11,32.14h.63v.65h-.63Zm0,1.21h.6V35.8h-.6Z"/><path class="cls-3" d="M16,33.69h0a.87.87,0,0,1,.13-.15.7.7,0,0,1,.19-.13,1.12,1.12,0,0,1,.22-.09,1.24,1.24,0,0,1,.27,0,1.09,1.09,0,0,1,.26,0,.92.92,0,0,1,.23.09.73.73,0,0,1,.18.17.92.92,0,0,1,.13.24l0,.17a1.48,1.48,0,0,1,0,.22V35.8H17V34.3a.86.86,0,0,0,0-.17A.24.24,0,0,0,17,34a.33.33,0,0,0-.13-.17.52.52,0,0,0-.23-.05.76.76,0,0,0-.33.08,1.09,1.09,0,0,0-.29.24V35.8H15.4V33.35h.49Z"/><path class="cls-3" d="M26.12,32.46a.32.32,0,0,0-.07-.2.47.47,0,0,0-.17-.14L25.64,32,25.35,32l-.37-.1a1.09,1.09,0,0,1-.32-.17.92.92,0,0,1-.22-.26,1,1,0,0,1-.08-.41,1,1,0,0,1,.1-.46.83.83,0,0,1,.25-.33,1.15,1.15,0,0,1,.38-.2,1.75,1.75,0,0,1,.48-.06,3.51,3.51,0,0,1,.55.05,2.62,2.62,0,0,1,.47.14v.53a2.88,2.88,0,0,0-.51-.15,2.48,2.48,0,0,0-.45,0,.88.88,0,0,0-.47.11A.4.4,0,0,0,25,31a.46.46,0,0,0,.05.21.67.67,0,0,0,.15.14l.22.08a1.1,1.1,0,0,0,.26.06l.41.11a1.19,1.19,0,0,1,.34.16.8.8,0,0,1,.24.28,1,1,0,0,1,.09.44,1,1,0,0,1-.1.47.91.91,0,0,1-.29.33,1.16,1.16,0,0,1-.45.19,2.56,2.56,0,0,1-.58.07,2.48,2.48,0,0,1-.54-.06,1.41,1.41,0,0,1-.44-.15v-.52a2.4,2.4,0,0,0,.48.15,2.07,2.07,0,0,0,.5,0l.28,0a1,1,0,0,0,.26-.08.55.55,0,0,0,.18-.16A.49.49,0,0,0,26.12,32.46Z"/><path class="cls-3" d="M28.8,33.17h0a.65.65,0,0,1-.12.11,1.11,1.11,0,0,1-.16.11l-.2.08a.93.93,0,0,1-.24,0,.88.88,0,0,1-.33-.06.84.84,0,0,1-.26-.15.85.85,0,0,1-.17-.25.88.88,0,0,1-.06-.33.78.78,0,0,1,.07-.35,1.05,1.05,0,0,1,.2-.27,1,1,0,0,1,.31-.16,1.25,1.25,0,0,1,.4-.06l.29,0,.24.05v-.1a.41.41,0,0,0,0-.16.49.49,0,0,0-.1-.15.39.39,0,0,0-.17-.09.6.6,0,0,0-.25,0,1.47,1.47,0,0,0-.36,0l-.39.12v-.47a2.22,2.22,0,0,1,.39-.12,2.82,2.82,0,0,1,.43,0,1.61,1.61,0,0,1,.47.07.81.81,0,0,1,.33.18.76.76,0,0,1,.21.27,1,1,0,0,1,.06.34v.93c0,.16,0,.3,0,.41s0,.22,0,.31h-.54Zm0-.78-.2,0h-.23a.66.66,0,0,0-.34.08.3.3,0,0,0-.13.27.37.37,0,0,0,0,.15.25.25,0,0,0,.08.1l.11.06.14,0a.47.47,0,0,0,.17,0,.39.39,0,0,0,.15-.06.36.36,0,0,0,.12-.08l.1-.09Z"/><path class="cls-3" d="M31.56,30.26l-.2,0-.2,0-.18,0a.41.41,0,0,0-.13.08.38.38,0,0,0-.09.15,1.25,1.25,0,0,0,0,.21V31h.68v.49h-.68v1.95h-.6V31.48h-.42V31h.42v-.3a1.16,1.16,0,0,1,.07-.44.81.81,0,0,1,.5-.48,1.21,1.21,0,0,1,.38-.06l.25,0,.22.05Z"/><path class="cls-3" d="M33.18,31.46h0a1.48,1.48,0,0,0-.49.08.8.8,0,0,0-.32.25v1.64h-.6V31h.5l.06.34h0a.65.65,0,0,1,.29-.3.87.87,0,0,1,.44-.11h.16Z"/><path class="cls-3" d="M35,33.17h0a.65.65,0,0,1-.12.11l-.16.11-.2.08a1,1,0,0,1-.24,0,.88.88,0,0,1-.33-.06.74.74,0,0,1-.26-.15.85.85,0,0,1-.17-.25.88.88,0,0,1-.06-.33.78.78,0,0,1,.07-.35,1.05,1.05,0,0,1,.2-.27,1,1,0,0,1,.31-.16,1.25,1.25,0,0,1,.4-.06l.29,0,.24.05v-.1a.41.41,0,0,0,0-.16.36.36,0,0,0-.1-.15.42.42,0,0,0-.16-.09.68.68,0,0,0-.26,0,1.47,1.47,0,0,0-.36,0l-.4.12v-.47A2.64,2.64,0,0,1,34,31a2.82,2.82,0,0,1,.43,0,1.61,1.61,0,0,1,.47.07.81.81,0,0,1,.33.18.76.76,0,0,1,.21.27,1,1,0,0,1,.06.34v.93c0,.16,0,.3,0,.41s0,.22,0,.31H35Zm0-.78-.2,0H34.5a.66.66,0,0,0-.34.08.3.3,0,0,0-.13.27.37.37,0,0,0,0,.15.25.25,0,0,0,.08.1l.11.06.14,0a.47.47,0,0,0,.17,0,.34.34,0,0,0,.15-.06.36.36,0,0,0,.12-.08l.1-.09Z"/><path class="cls-3" d="M27.17,36.8a8.54,8.54,0,0,1,.59.92h0q0-.66,0-1V35.23h.62v3.38h-.65l-1.1-1.56a10.29,10.29,0,0,1-.61-.94h0c0,.42,0,.74,0,1v1.53h-.62V35.23h.65Z"/><path class="cls-3" d="M30.54,38.35h0l-.12.11-.16.1a1,1,0,0,1-.21.08.88.88,0,0,1-.24,0,1.13,1.13,0,0,1-.32-.05.76.76,0,0,1-.26-.16.74.74,0,0,1-.17-.25.79.79,0,0,1-.06-.32.86.86,0,0,1,.07-.36.73.73,0,0,1,.2-.26,1,1,0,0,1,.31-.17,1.6,1.6,0,0,1,.39-.05,1.42,1.42,0,0,1,.3,0l.23,0V37a.47.47,0,0,0,0-.17.42.42,0,0,0-.09-.14.4.4,0,0,0-.17-.1.87.87,0,0,0-.25,0,2.46,2.46,0,0,0-.37,0,2.54,2.54,0,0,0-.39.13v-.47a1.79,1.79,0,0,1,.39-.13,3.13,3.13,0,0,1,.44,0,1.56,1.56,0,0,1,.46.06,1,1,0,0,1,.34.19.6.6,0,0,1,.2.27.77.77,0,0,1,.07.34v.92c0,.16,0,.3,0,.42a3,3,0,0,0,0,.31h-.54Zm-.05-.79-.2,0-.22,0a.61.61,0,0,0-.35.09.3.3,0,0,0-.12.26.61.61,0,0,0,0,.15.44.44,0,0,0,.08.1.27.27,0,0,0,.12.06.32.32,0,0,0,.14,0,.5.5,0,0,0,.17,0l.15-.06L30.4,38a.38.38,0,0,0,.09-.09Z"/><path class="cls-3" d="M33.26,38.6a.85.85,0,0,1-.24,0l-.27,0a1.06,1.06,0,0,1-.5-.1.61.61,0,0,1-.28-.29.92.92,0,0,1,0-.36V36.65h-.46v-.49h.46v-.69h.59v.69h.72v.49h-.72v1.19a.36.36,0,0,0,.05.21.33.33,0,0,0,.3.12l.21,0,.19,0Z"/><path class="cls-3" d="M33.81,37.93h.69v.68h-.69Z"/><path class="cls-3" d="M54.83,27.1a.88.88,0,0,1-.1.4.9.9,0,0,1-.33.31h0a.61.61,0,0,1,.23.11.9.9,0,0,1,.19.15,2.12,2.12,0,0,1,.11.21.75.75,0,0,1,0,.26.88.88,0,0,1,0,.27.7.7,0,0,1-.14.27,1,1,0,0,1-.26.25,1.3,1.3,0,0,1-.41.17l-.14,0-.17,0-.2,0H52.38V26.2h1.17a2,2,0,0,1,.61.07,1.2,1.2,0,0,1,.3.15,1.34,1.34,0,0,1,.21.2,1,1,0,0,1,.12.23A.73.73,0,0,1,54.83,27.1Zm-1.27.49a1.09,1.09,0,0,0,.37-.05.37.37,0,0,0,.2-.16.46.46,0,0,0,.06-.23.4.4,0,0,0-.07-.24.36.36,0,0,0-.23-.15.38.38,0,0,0-.16,0H53v.87Zm-.56.52v.95h.68a.56.56,0,0,0,.2,0A.63.63,0,0,0,54.1,29a.47.47,0,0,0,.13-.11.35.35,0,0,0,.08-.13.77.77,0,0,0,0-.15.41.41,0,0,0-.07-.25.57.57,0,0,0-.25-.16l-.17,0H53Z"/><path class="cls-3" d="M57,29.32h0l-.12.11a.69.69,0,0,1-.17.1.52.52,0,0,1-.2.08.88.88,0,0,1-.24,0,1.13,1.13,0,0,1-.32-.05.76.76,0,0,1-.26-.16.62.62,0,0,1-.17-.25.66.66,0,0,1-.06-.32.78.78,0,0,1,.07-.35.6.6,0,0,1,.2-.27.76.76,0,0,1,.31-.16,1.23,1.23,0,0,1,.39-.06l.3,0,.23.05V28a.51.51,0,0,0,0-.17.42.42,0,0,0-.09-.14.69.69,0,0,0-.17-.1.9.9,0,0,0-.25,0,1.55,1.55,0,0,0-.37,0,1.72,1.72,0,0,0-.39.12v-.47a2.22,2.22,0,0,1,.39-.12,2,2,0,0,1,.44-.05,1.31,1.31,0,0,1,.46.07.85.85,0,0,1,.34.18.6.6,0,0,1,.2.27.77.77,0,0,1,.07.34v.92c0,.16,0,.3,0,.42v.31H57Zm0-.78-.2,0-.22,0a.61.61,0,0,0-.35.09.32.32,0,0,0-.13.27.32.32,0,0,0,0,.14.31.31,0,0,0,.2.16.32.32,0,0,0,.14,0,.5.5,0,0,0,.17,0l.15-.06.12-.08.09-.09Z"/><path class="cls-3" d="M58.74,27.47h0a1,1,0,0,1,.14-.15.57.57,0,0,1,.18-.12l.23-.1a1.12,1.12,0,0,1,.27,0,1,1,0,0,1,.25,0,.54.54,0,0,1,.23.1.7.7,0,0,1,.19.16.83.83,0,0,1,.12.25.47.47,0,0,1,0,.17,1.34,1.34,0,0,1,0,.21v1.59h-.59v-1.5c0-.06,0-.12,0-.17l0-.12a.3.3,0,0,0-.14-.17.48.48,0,0,0-.22-.05.69.69,0,0,0-.34.09.86.86,0,0,0-.28.23v1.69h-.6V27.13h.5Z"/><path class="cls-3" d="M62.83,29.53a1.58,1.58,0,0,1-.28.08,2,2,0,0,1-.35,0,1.57,1.57,0,0,1-.49-.07,1.18,1.18,0,0,1-.41-.23A1.36,1.36,0,0,1,61,29a1.54,1.54,0,0,1-.1-.55,1.41,1.41,0,0,1,.12-.61,1,1,0,0,1,.29-.41,1.11,1.11,0,0,1,.41-.23,1.42,1.42,0,0,1,.45-.08,1.55,1.55,0,0,1,.31,0l.28.08v.49l-.24-.08a1.12,1.12,0,0,0-.27,0,.8.8,0,0,0-.27,0,.75.75,0,0,0-.24.15.67.67,0,0,0-.16.25,1,1,0,0,0-.06.38.94.94,0,0,0,.05.3.66.66,0,0,0,.13.25.67.67,0,0,0,.23.16.76.76,0,0,0,.32.06,1.36,1.36,0,0,0,.29,0l.26-.08Z"/><path class="cls-3" d="M65.68,28.36a1.46,1.46,0,0,1-.09.52,1,1,0,0,1-.25.41,1,1,0,0,1-.38.26,1.36,1.36,0,0,1-.51.09,1.42,1.42,0,0,1-.52-.09,1,1,0,0,1-.38-.26,1.13,1.13,0,0,1-.25-.41,1.72,1.72,0,0,1-.08-.52,1.74,1.74,0,0,1,.08-.53,1.09,1.09,0,0,1,.25-.4,1.05,1.05,0,0,1,.39-.27,1.35,1.35,0,0,1,.5-.09,1.38,1.38,0,0,1,.52.09,1,1,0,0,1,.39.27,1,1,0,0,1,.24.4A1.47,1.47,0,0,1,65.68,28.36Zm-.62,0A1.23,1.23,0,0,0,65,28a.83.83,0,0,0-.12-.25.59.59,0,0,0-.2-.15.66.66,0,0,0-.25-.05.69.69,0,0,0-.24.05.55.55,0,0,0-.19.15.66.66,0,0,0-.13.25,1.25,1.25,0,0,0,0,.35,1.18,1.18,0,0,0,0,.34A.84.84,0,0,0,64,29a.45.45,0,0,0,.19.15.65.65,0,0,0,.5,0,.53.53,0,0,0,.19-.15A.83.83,0,0,0,65,28.7,1.16,1.16,0,0,0,65.06,28.36Z"/><path class="cls-3" d="M54.33,33.78a.32.32,0,0,0-.06-.2.51.51,0,0,0-.18-.14l-.24-.08-.29-.06-.37-.1a1.37,1.37,0,0,1-.32-.16.75.75,0,0,1-.29-.68,1.08,1.08,0,0,1,.09-.46.9.9,0,0,1,.25-.33,1.25,1.25,0,0,1,.38-.2,1.75,1.75,0,0,1,.48-.06,3.41,3.41,0,0,1,.55.05,2.39,2.39,0,0,1,.47.14V32a2.65,2.65,0,0,0-.51-.15,2.48,2.48,0,0,0-.45-.05.88.88,0,0,0-.47.11.39.39,0,0,0-.16.34.35.35,0,0,0,0,.21.34.34,0,0,0,.15.14l.21.09.26.06.41.1a1.42,1.42,0,0,1,.35.17.78.78,0,0,1,.24.27,1.12,1.12,0,0,1,.08.44,1,1,0,0,1-.1.47.88.88,0,0,1-.28.33,1.3,1.3,0,0,1-.45.19,2.17,2.17,0,0,1-.59.07,2.48,2.48,0,0,1-.54-.06,1.34,1.34,0,0,1-.44-.15v-.52a3.49,3.49,0,0,0,.49.16,2.63,2.63,0,0,0,.49,0,1.42,1.42,0,0,0,.29,0,1,1,0,0,0,.25-.08.55.55,0,0,0,.18-.16A.49.49,0,0,0,54.33,33.78Z"/><path class="cls-3" d="M57,34.49h0l-.12.11-.17.11-.2.08a.88.88,0,0,1-.24,0,.87.87,0,0,1-.32-.06.66.66,0,0,1-.26-.15.73.73,0,0,1-.24-.58.78.78,0,0,1,.08-.35.7.7,0,0,1,.19-.26.94.94,0,0,1,.31-.17,1.29,1.29,0,0,1,.4-.06l.29,0,.24,0v-.1a.45.45,0,0,0,0-.16.42.42,0,0,0-.09-.14.37.37,0,0,0-.17-.1.65.65,0,0,0-.26,0,1.47,1.47,0,0,0-.36,0l-.39.12v-.47a2.22,2.22,0,0,1,.39-.12,2,2,0,0,1,.43,0,1.63,1.63,0,0,1,.47.06,1,1,0,0,1,.34.18.73.73,0,0,1,.2.27,1,1,0,0,1,.07.34v1.34c0,.12,0,.22,0,.31H57ZM57,33.71l-.2,0h-.22a.7.7,0,0,0-.35.08.32.32,0,0,0-.13.27.33.33,0,0,0,0,.15.39.39,0,0,0,.08.1.24.24,0,0,0,.11.06l.14,0a.47.47,0,0,0,.17,0,.34.34,0,0,0,.15-.06.57.57,0,0,0,.13-.08l.09-.08Z"/><path class="cls-3" d="M59.77,31.58l-.2,0-.2,0a.48.48,0,0,0-.18,0,.22.22,0,0,0-.13.08.27.27,0,0,0-.08.14A.66.66,0,0,0,59,32v.33h.68v.49H59v2h-.6v-2h-.41v-.49h.41V32a1.47,1.47,0,0,1,.07-.45.93.93,0,0,1,.2-.3.87.87,0,0,1,.31-.18A1.1,1.1,0,0,1,59.3,31l.26,0,.21.06Z"/><path class="cls-3" d="M61.39,32.78h0a1.42,1.42,0,0,0-.48.08.76.76,0,0,0-.33.25v1.64h-.59V32.31h.49l.06.34h0a.76.76,0,0,1,.29-.3.91.91,0,0,1,.45-.1h.15Z"/><path class="cls-3" d="M63.19,34.49h0l-.12.11-.17.11a.93.93,0,0,1-.2.08.88.88,0,0,1-.24,0,1,1,0,0,1-.33-.06.79.79,0,0,1-.25-.15.7.7,0,0,1-.17-.25.72.72,0,0,1-.07-.33.78.78,0,0,1,.08-.35.7.7,0,0,1,.19-.26.85.85,0,0,1,.31-.17,1.29,1.29,0,0,1,.4-.06l.29,0,.24,0v-.1a.45.45,0,0,0,0-.16.42.42,0,0,0-.09-.14.37.37,0,0,0-.17-.1.65.65,0,0,0-.26,0,1.47,1.47,0,0,0-.36,0l-.39.12v-.47a2.22,2.22,0,0,1,.39-.12,2,2,0,0,1,.43,0,1.63,1.63,0,0,1,.47.06,1,1,0,0,1,.34.18.86.86,0,0,1,.2.27.8.8,0,0,1,.07.34v1.34c0,.12,0,.22,0,.31h-.54Zm0-.78-.2,0h-.22a.67.67,0,0,0-.35.08.3.3,0,0,0-.13.27.33.33,0,0,0,0,.15.39.39,0,0,0,.08.1.24.24,0,0,0,.11.06l.14,0,.18,0a.35.35,0,0,0,.14-.06.57.57,0,0,0,.13-.08l.09-.08Z"/><path class="cls-3" d="M64.5,34.08h.68v.67H64.5Z"/><path class="cls-3" d="M74.68,68.62a2.09,2.09,0,0,0-.72.13,1.47,1.47,0,0,0-.56.38,1.65,1.65,0,0,0-.37.6,2.37,2.37,0,0,0-.14.83,2.22,2.22,0,0,0,.13.81,1.51,1.51,0,0,0,.34.58,1.42,1.42,0,0,0,.56.36,2.09,2.09,0,0,0,.74.12,4.16,4.16,0,0,0,.6-.05,3.28,3.28,0,0,0,.58-.14v.83a4.72,4.72,0,0,1-.59.12,4.65,4.65,0,0,1-.66,0,3.4,3.4,0,0,1-1.16-.19,2.38,2.38,0,0,1-.85-.54,2.25,2.25,0,0,1-.5-.83,3,3,0,0,1-.17-1.06,3.31,3.31,0,0,1,.18-1.11,2.55,2.55,0,0,1,.52-.89,2.44,2.44,0,0,1,.86-.59,3.24,3.24,0,0,1,1.16-.22,4.23,4.23,0,0,1,.63,0,2.57,2.57,0,0,1,.53.13v.81a3.72,3.72,0,0,0-.58-.14A4.73,4.73,0,0,0,74.68,68.62Z"/><path class="cls-3" d="M77.66,69c0,.2,0,.36,0,.49a1.79,1.79,0,0,1,0,.34h0a1.33,1.33,0,0,1,.2-.22,1.24,1.24,0,0,1,.26-.19,1.34,1.34,0,0,1,.32-.13,1.68,1.68,0,0,1,.4,0,1.5,1.5,0,0,1,.37,0,1.17,1.17,0,0,1,.33.11,1.1,1.1,0,0,1,.28.2,1.29,1.29,0,0,1,.22.3,1.13,1.13,0,0,1,.1.34,1.92,1.92,0,0,1,0,.45v2.44h-.93V70.83a2.44,2.44,0,0,0,0-.29.53.53,0,0,0-.06-.19.42.42,0,0,0-.23-.24.78.78,0,0,0-.35-.07,1,1,0,0,0-.5.13,1.39,1.39,0,0,0-.42.36v2.61h-.92V67.48h.92Z"/><path class="cls-3" d="M81.18,67.48h1v1h-1Zm0,1.87h.92v3.79H81.2Z"/><path class="cls-3" d="M85.7,69.78l0-.43h.82V75h-.93V73.07a2,2,0,0,0,0-.22h0a1.56,1.56,0,0,1-.19.14,1.92,1.92,0,0,1-.25.12,1.23,1.23,0,0,1-.29.09,1.66,1.66,0,0,1-.33,0,1.76,1.76,0,0,1-.59-.11,1.43,1.43,0,0,1-.51-.34,1.78,1.78,0,0,1-.36-.6,2.57,2.57,0,0,1-.13-.87,2.45,2.45,0,0,1,.14-.89,1.79,1.79,0,0,1,.37-.65,1.55,1.55,0,0,1,.53-.39,1.46,1.46,0,0,1,.61-.13,1.34,1.34,0,0,1,.61.14,1.38,1.38,0,0,1,.45.38Zm-.91,2.72a.77.77,0,0,0,.27,0,.92.92,0,0,0,.23-.09.76.76,0,0,0,.19-.12l.14-.13V70.44a1.5,1.5,0,0,0-.35-.31.81.81,0,0,0-.45-.13,1,1,0,0,0-.3,0,.79.79,0,0,0-.29.21,1.07,1.07,0,0,0-.22.4,1.87,1.87,0,0,0-.08.62,2,2,0,0,0,0,.51,1.21,1.21,0,0,0,.16.38.71.71,0,0,0,.28.24A.72.72,0,0,0,84.79,72.5Z"/><path class="cls-3" d="M89.23,73.24a2,2,0,0,1-.94-.2,1.37,1.37,0,0,1-.57-.52,1.66,1.66,0,0,1-.15-.39,2.16,2.16,0,0,1,0-.46V69.35h.93v2.22a1.55,1.55,0,0,0,0,.33.85.85,0,0,0,.08.24.57.57,0,0,0,.26.25.91.91,0,0,0,.41.09.83.83,0,0,0,.43-.1.57.57,0,0,0,.27-.28,1.16,1.16,0,0,0,.09-.51V69.35H91v2.32a1.79,1.79,0,0,1-.16.77,1.27,1.27,0,0,1-.24.33,1.2,1.2,0,0,1-.33.25,1.91,1.91,0,0,1-.44.16A2.32,2.32,0,0,1,89.23,73.24Z"/><path class="cls-3" d="M91.92,67.48h1v1h-1Zm0,1.87h.92v3.79H92Z"/><path class="cls-3" d="M96.22,73.13a1.7,1.7,0,0,1-.37.08l-.4,0a1.74,1.74,0,0,1-.78-.16.84.84,0,0,1-.43-.44,1.46,1.46,0,0,1-.09-.56v-2h-.71v-.76h.71V68.29h.92v1.06h1.1v.76h-1.1V72a.68.68,0,0,0,.07.33.52.52,0,0,0,.47.18,1.63,1.63,0,0,0,.31,0,2.27,2.27,0,0,0,.3-.06Z"/><path class="cls-3" d="M99.17,72.74h0L99,72.9a1.56,1.56,0,0,1-.25.17,1.66,1.66,0,0,1-.31.12,1.5,1.5,0,0,1-.37,0,1.44,1.44,0,0,1-.51-.09,1,1,0,0,1-.4-.24,1.12,1.12,0,0,1-.26-.38,1.19,1.19,0,0,1-.1-.51,1.33,1.33,0,0,1,.11-.54,1.27,1.27,0,0,1,.31-.41,1.38,1.38,0,0,1,.48-.26,2,2,0,0,1,.61-.09,2,2,0,0,1,.45,0l.37.07v-.15a.7.7,0,0,0-.19-.48.93.93,0,0,0-.26-.15,1.14,1.14,0,0,0-.39-.06,2.1,2.1,0,0,0-.56.07,4.12,4.12,0,0,0-.61.18v-.72a3,3,0,0,1,.6-.19,3.71,3.71,0,0,1,.67-.07,2.3,2.3,0,0,1,.73.1,1.62,1.62,0,0,1,.52.28,1.15,1.15,0,0,1,.31.42,1.32,1.32,0,0,1,.1.53V72c0,.25,0,.47,0,.65s0,.34,0,.48h-.84Zm-.07-1.22-.31,0a2,2,0,0,0-.34,0,.94.94,0,0,0-.54.14.46.46,0,0,0-.2.41.48.48,0,0,0,.05.22.4.4,0,0,0,.12.16.59.59,0,0,0,.17.1.78.78,0,0,0,.22,0,.84.84,0,0,0,.27,0,1.57,1.57,0,0,0,.23-.09l.19-.13a1.85,1.85,0,0,0,.14-.14Z"/><path class="cls-3" d="M90.42,12.07h-.36v1.53h-.72V9.67h1.13l.5,0a2,2,0,0,1,.38.08,1.23,1.23,0,0,1,.62.39,1.09,1.09,0,0,1,.21.69,1.23,1.23,0,0,1-.11.51,1.06,1.06,0,0,1-.35.38,1.46,1.46,0,0,1-.55.24A2.75,2.75,0,0,1,90.42,12.07Zm-.36-.62h.35a2.17,2.17,0,0,0,.49-.05.86.86,0,0,0,.32-.13.47.47,0,0,0,.17-.2.75.75,0,0,0,0-.26.52.52,0,0,0-.08-.3.47.47,0,0,0-.27-.19.91.91,0,0,0-.26-.06h-.77Z"/><path class="cls-3" d="M94.53,13.29h0a.58.58,0,0,1-.14.12.81.81,0,0,1-.18.12,1.33,1.33,0,0,1-.24.1,1.2,1.2,0,0,1-.28,0,1.1,1.1,0,0,1-.37-.06.87.87,0,0,1-.31-.18.81.81,0,0,1-.19-.29,1,1,0,0,1,0-.79A.87.87,0,0,1,93,12a1.23,1.23,0,0,1,.36-.19,1.65,1.65,0,0,1,.46-.06,1.88,1.88,0,0,1,.34,0,1.81,1.81,0,0,1,.27.06v-.12a.63.63,0,0,0,0-.19.46.46,0,0,0-.11-.16.56.56,0,0,0-.2-.12.81.81,0,0,0-.29,0,1.51,1.51,0,0,0-.42,0,2.6,2.6,0,0,0-.46.14v-.55a2.24,2.24,0,0,1,.46-.14,2.65,2.65,0,0,1,.5-.05,1.73,1.73,0,0,1,.54.07,1.42,1.42,0,0,1,.39.21.82.82,0,0,1,.24.32,1,1,0,0,1,.08.39v1.56c0,.13,0,.25,0,.36h-.62Zm-.06-.91-.23-.05H94a.68.68,0,0,0-.4.1.34.34,0,0,0-.15.31.38.38,0,0,0,0,.16.4.4,0,0,0,.1.12.27.27,0,0,0,.13.07.41.41,0,0,0,.16,0,.64.64,0,0,0,.2,0l.17-.07a.71.71,0,0,0,.14-.1.55.55,0,0,0,.11-.1Z"/><path class="cls-3" d="M97.63,11.3h-.06a1.6,1.6,0,0,0-.56.09.85.85,0,0,0-.37.3v1.9h-.7V10.75h.58l.06.39h0a1.1,1.1,0,0,1,.34-.34,1.08,1.08,0,0,1,.52-.12h.18Z"/><path class="cls-3" d="M101.7,11.86a.91.91,0,0,0,0-.17.59.59,0,0,0,0-.14.45.45,0,0,0-.12-.21.43.43,0,0,0-.27-.08l-.19,0-.19.07-.18.12-.16.15v2h-.69V11.86a.91.91,0,0,0,0-.17.59.59,0,0,0,0-.14.45.45,0,0,0-.12-.21.41.41,0,0,0-.27-.08l-.18,0-.19.07a.76.76,0,0,0-.19.12,1.06,1.06,0,0,0-.15.15v2H98V10.75h.58l.06.39h0l.16-.17a.8.8,0,0,1,.21-.15,1.17,1.17,0,0,1,.26-.1,1,1,0,0,1,.3,0,1.07,1.07,0,0,1,.51.12.87.87,0,0,1,.34.39h0a1.18,1.18,0,0,1,.18-.21,1.34,1.34,0,0,1,.23-.16,1.17,1.17,0,0,1,.26-.1,1.06,1.06,0,0,1,.31,0,.92.92,0,0,1,.51.13.79.79,0,0,1,.31.34.33.33,0,0,1,0,.12.54.54,0,0,1,0,.15c0,.05,0,.11,0,.18v2h-.69Z"/><path class="cls-3" d="M104.82,13.29h0a.87.87,0,0,1-.14.12.88.88,0,0,1-.19.12l-.23.1a1.27,1.27,0,0,1-.28,0,1.21,1.21,0,0,1-.38-.06.92.92,0,0,1-.3-.18,1,1,0,0,1-.2-.29,1.12,1.12,0,0,1-.07-.38.91.91,0,0,1,.09-.41.87.87,0,0,1,.23-.31,1.23,1.23,0,0,1,.36-.19,1.6,1.6,0,0,1,.46-.06,1.88,1.88,0,0,1,.34,0,1.81,1.81,0,0,1,.27.06v-.12a.43.43,0,0,0,0-.19.34.34,0,0,0-.1-.16.56.56,0,0,0-.2-.12.85.85,0,0,0-.29,0,1.51,1.51,0,0,0-.42,0,2.38,2.38,0,0,0-.46.14v-.55a2.15,2.15,0,0,1,.45-.14,2.76,2.76,0,0,1,.51-.05,1.77,1.77,0,0,1,.54.07,1.42,1.42,0,0,1,.39.21.9.9,0,0,1,.23.32.85.85,0,0,1,.08.39v1.07c0,.19,0,.35,0,.49s0,.25,0,.36h-.63Zm0-.91-.23-.05h-.26a.66.66,0,0,0-.4.1.34.34,0,0,0-.15.31.38.38,0,0,0,0,.16.27.27,0,0,0,.09.12.37.37,0,0,0,.14.07.41.41,0,0,0,.16,0,.69.69,0,0,0,.2,0l.17-.07a.71.71,0,0,0,.14-.1l.11-.1Z"/><path class="cls-3" d="M106.27,13.59V9.35h.7v4.24Z"/><path class="cls-3" d="M109.43,13.29h0l-.15.12a.81.81,0,0,1-.18.12,1.33,1.33,0,0,1-.24.1,1.2,1.2,0,0,1-.28,0,1.1,1.1,0,0,1-.37-.06.87.87,0,0,1-.31-.18.81.81,0,0,1-.19-.29,1,1,0,0,1,0-.79.87.87,0,0,1,.23-.31,1.23,1.23,0,0,1,.36-.19,1.65,1.65,0,0,1,.46-.06,1.83,1.83,0,0,1,.34,0,1.81,1.81,0,0,1,.27.06v-.12a.63.63,0,0,0,0-.19.46.46,0,0,0-.11-.16.56.56,0,0,0-.2-.12.81.81,0,0,0-.29,0,1.51,1.51,0,0,0-.42,0,2.6,2.6,0,0,0-.46.14v-.55a2.24,2.24,0,0,1,.46-.14,2.65,2.65,0,0,1,.5-.05,1.73,1.73,0,0,1,.54.07,1.42,1.42,0,0,1,.39.21.82.82,0,0,1,.24.32,1,1,0,0,1,.08.39v1.56c0,.13,0,.25,0,.36h-.62Zm-.06-.91-.23-.05h-.26a.68.68,0,0,0-.4.1.34.34,0,0,0-.15.31.38.38,0,0,0,0,.16.4.4,0,0,0,.1.12.27.27,0,0,0,.13.07.41.41,0,0,0,.16,0,.64.64,0,0,0,.2,0l.17-.07a.71.71,0,0,0,.14-.1.55.55,0,0,0,.11-.1Z"/><path class="cls-3" d="M112.58,13.58a1.06,1.06,0,0,1-.28.06l-.3,0a1.26,1.26,0,0,1-.59-.12.61.61,0,0,1-.32-.33,1.14,1.14,0,0,1-.07-.42V11.32h-.53v-.57H111V10h.7v.8h.82v.57h-.82V12.7a.39.39,0,0,0,0,.24.39.39,0,0,0,.35.14l.23,0,.23-.05Z"/><path class="cls-3" d="M119.54,10.2a1.4,1.4,0,0,0-.54.1,1.19,1.19,0,0,0-.42.28,1.28,1.28,0,0,0-.28.45,2,2,0,0,0-.1.62,1.87,1.87,0,0,0,.09.61,1.2,1.2,0,0,0,.26.44A1,1,0,0,0,119,13a1.59,1.59,0,0,0,.55.09l.46,0a2.71,2.71,0,0,0,.43-.1v.61a4.13,4.13,0,0,1-.44.1,3.91,3.91,0,0,1-.49,0,2.62,2.62,0,0,1-.88-.14,1.84,1.84,0,0,1-.63-.4,1.65,1.65,0,0,1-.38-.62,2.32,2.32,0,0,1-.13-.8,2.45,2.45,0,0,1,.14-.83,1.94,1.94,0,0,1,.39-.67,1.83,1.83,0,0,1,.64-.44,2.41,2.41,0,0,1,.87-.17,3.58,3.58,0,0,1,.48,0,2.35,2.35,0,0,1,.4.09v.61a2.73,2.73,0,0,0-.44-.1A2.69,2.69,0,0,0,119.54,10.2Z"/><path class="cls-3" d="M123.76,12.17a1.7,1.7,0,0,1-.1.61,1.31,1.31,0,0,1-.28.47,1.37,1.37,0,0,1-.45.3,1.59,1.59,0,0,1-.59.11,1.64,1.64,0,0,1-.6-.11,1.19,1.19,0,0,1-.45-.3,1.31,1.31,0,0,1-.28-.47,1.91,1.91,0,0,1,0-1.22,1.47,1.47,0,0,1,.28-.47,1.31,1.31,0,0,1,.46-.3,1.36,1.36,0,0,1,.58-.11,1.4,1.4,0,0,1,.6.11,1.19,1.19,0,0,1,.45.3,1.33,1.33,0,0,1,.29.47A2,2,0,0,1,123.76,12.17Zm-.71,0a1.25,1.25,0,0,0-.06-.4.87.87,0,0,0-.14-.29.53.53,0,0,0-.23-.17.68.68,0,0,0-.29-.06.67.67,0,0,0-.28.06.46.46,0,0,0-.22.17.89.89,0,0,0-.15.29,1.62,1.62,0,0,0,0,.8.89.89,0,0,0,.15.29.64.64,0,0,0,.51.23.64.64,0,0,0,.28-.06.76.76,0,0,0,.23-.17.87.87,0,0,0,.14-.29A1.25,1.25,0,0,0,123.05,12.17Z"/><path class="cls-3" d="M126.42,13.53l-.32.09a1.92,1.92,0,0,1-1,0,1.27,1.27,0,0,1-.47-.26,1.17,1.17,0,0,1-.31-.46,1.56,1.56,0,0,1-.12-.64,1.86,1.86,0,0,1,.13-.7,1.45,1.45,0,0,1,.35-.48,1.29,1.29,0,0,1,.47-.27,1.81,1.81,0,0,1,.51-.08,2.22,2.22,0,0,1,.37,0,2.45,2.45,0,0,1,.32.09v.57a1.43,1.43,0,0,0-.27-.09,1.58,1.58,0,0,0-.32,0,.89.89,0,0,0-.32.05.63.63,0,0,0-.26.16.67.67,0,0,0-.19.29,1.22,1.22,0,0,0-.07.45,1.34,1.34,0,0,0,0,.35.85.85,0,0,0,.16.28.69.69,0,0,0,.25.19.89.89,0,0,0,.38.07,1.22,1.22,0,0,0,.34,0,1.4,1.4,0,0,0,.29-.09Z"/><path class="cls-3" d="M128.69,13.29h0a.87.87,0,0,1-.14.12.88.88,0,0,1-.19.12l-.23.1a1.27,1.27,0,0,1-.28,0,1.21,1.21,0,0,1-.38-.06.92.92,0,0,1-.3-.18,1,1,0,0,1-.2-.29,1.12,1.12,0,0,1-.07-.38.91.91,0,0,1,.09-.41.87.87,0,0,1,.23-.31,1.23,1.23,0,0,1,.36-.19,1.65,1.65,0,0,1,.46-.06,1.88,1.88,0,0,1,.34,0,1.81,1.81,0,0,1,.27.06v-.12a.43.43,0,0,0,0-.19.34.34,0,0,0-.1-.16.56.56,0,0,0-.2-.12.85.85,0,0,0-.29,0,1.51,1.51,0,0,0-.42,0,2.38,2.38,0,0,0-.46.14v-.55a2.15,2.15,0,0,1,.45-.14,2.76,2.76,0,0,1,.51-.05,1.77,1.77,0,0,1,.54.07A1.42,1.42,0,0,1,129,11a.9.9,0,0,1,.23.32.85.85,0,0,1,.08.39v1.07c0,.19,0,.35,0,.49s0,.25,0,.36h-.63Zm-.05-.91-.23-.05h-.26a.66.66,0,0,0-.4.1.34.34,0,0,0-.15.31.38.38,0,0,0,0,.16.27.27,0,0,0,.09.12.37.37,0,0,0,.14.07.41.41,0,0,0,.16,0,.69.69,0,0,0,.2,0l.17-.07a.71.71,0,0,0,.14-.1l.11-.1Z"/><path class="cls-3" d="M133.11,10.2a1.33,1.33,0,0,0-.54.1,1.15,1.15,0,0,0-.43.28,1.26,1.26,0,0,0-.27.45,1.72,1.72,0,0,0-.1.62,1.87,1.87,0,0,0,.09.61,1.2,1.2,0,0,0,.26.44.93.93,0,0,0,.41.26,1.64,1.64,0,0,0,.56.09,3.4,3.4,0,0,0,.45,0,2.84,2.84,0,0,0,.44-.1v.61l-.45.1a3.79,3.79,0,0,1-.49,0,2.56,2.56,0,0,1-.87-.14,1.79,1.79,0,0,1-.64-.4,2,2,0,0,1-.38-.62,2.58,2.58,0,0,1-.12-.8,2.45,2.45,0,0,1,.13-.83,1.81,1.81,0,0,1,.4-.67,1.74,1.74,0,0,1,.64-.44,2.32,2.32,0,0,1,.87-.17,3.57,3.57,0,0,1,.47,0,2.15,2.15,0,0,1,.4.09v.61a2.51,2.51,0,0,0-.44-.1Z"/><path class="cls-3" d="M137.33,12.17a2,2,0,0,1-.1.61,1.33,1.33,0,0,1-.29.47,1.19,1.19,0,0,1-.45.3,1.55,1.55,0,0,1-.59.11,1.64,1.64,0,0,1-.6-.11,1.23,1.23,0,0,1-.44-.3,1.33,1.33,0,0,1-.29-.47,1.91,1.91,0,0,1,0-1.22,1.49,1.49,0,0,1,.29-.47,1.19,1.19,0,0,1,.45-.3,1.41,1.41,0,0,1,.59-.11,1.46,1.46,0,0,1,.6.11,1.37,1.37,0,0,1,.45.3,1.47,1.47,0,0,1,.28.47A2,2,0,0,1,137.33,12.17Zm-.72,0a1.62,1.62,0,0,0-.05-.4,1.13,1.13,0,0,0-.15-.29.51.51,0,0,0-.22-.17.72.72,0,0,0-.29-.06.64.64,0,0,0-.28.06.48.48,0,0,0-.23.17.87.87,0,0,0-.14.29,1.36,1.36,0,0,0,0,.8.87.87,0,0,0,.14.29.76.76,0,0,0,.23.17.67.67,0,0,0,.28.06.68.68,0,0,0,.29-.06.72.72,0,0,0,.22-.17,1.13,1.13,0,0,0,.15-.29A1.62,1.62,0,0,0,136.61,12.17Z"/><path class="cls-3" d="M138,13.59V9.35h.7v4.24Z"/><path class="cls-3" d="M141.13,13.29h0l-.14.12a1.22,1.22,0,0,1-.19.12,1.33,1.33,0,0,1-.24.1,1.23,1.23,0,0,1-.65,0,.75.75,0,0,1-.3-.18.84.84,0,0,1-.2-.29,1.08,1.08,0,0,1,0-.79,1,1,0,0,1,.23-.31,1.23,1.23,0,0,1,.36-.19,1.65,1.65,0,0,1,.46-.06,1.83,1.83,0,0,1,.34,0,1.81,1.81,0,0,1,.27.06v-.12a.63.63,0,0,0,0-.19.36.36,0,0,0-.11-.16.52.52,0,0,0-.19-.12.87.87,0,0,0-.3,0,1.51,1.51,0,0,0-.42,0,2.6,2.6,0,0,0-.46.14v-.55a2.44,2.44,0,0,1,.46-.14,2.73,2.73,0,0,1,.5-.05,1.84,1.84,0,0,1,.55.07,1.51,1.51,0,0,1,.38.21.82.82,0,0,1,.24.32,1,1,0,0,1,.08.39v1.56c0,.13,0,.25,0,.36h-.62Zm-.06-.91-.23-.05h-.26a.68.68,0,0,0-.4.1.34.34,0,0,0-.15.31.36.36,0,0,0,.26.35.41.41,0,0,0,.16,0,.64.64,0,0,0,.2,0l.17-.07.15-.1.1-.1Z"/><path class="cls-3" d="M122.3,39.3a1.4,1.4,0,0,0-.54.1,1.07,1.07,0,0,0-.42.28,1.28,1.28,0,0,0-.28.45,2,2,0,0,0-.1.62,1.91,1.91,0,0,0,.09.61,1.28,1.28,0,0,0,.26.44,1.19,1.19,0,0,0,.42.26,1.59,1.59,0,0,0,.55.09l.46,0a2.7,2.7,0,0,0,.43-.11v.62a2.85,2.85,0,0,1-.44.09,2.63,2.63,0,0,1-.49,0,2.58,2.58,0,0,1-.88-.14,1.72,1.72,0,0,1-.63-.41,1.58,1.58,0,0,1-.38-.62,2.22,2.22,0,0,1-.13-.79,2.55,2.55,0,0,1,.14-.84,2,2,0,0,1,.39-.66,1.63,1.63,0,0,1,.64-.44,2.21,2.21,0,0,1,.87-.17,2.29,2.29,0,0,1,.47,0,2.26,2.26,0,0,1,.41.09v.61a3,3,0,0,0-.44-.1Z"/><path class="cls-3" d="M125.07,42.76a1.49,1.49,0,0,1-.71-.15.89.89,0,0,1-.42-.39.93.93,0,0,1-.12-.29,1.83,1.83,0,0,1,0-.35V39.85h.69v1.66a1.54,1.54,0,0,0,0,.24,1.06,1.06,0,0,0,.06.19.61.61,0,0,0,.2.19.75.75,0,0,0,.31.06.66.66,0,0,0,.32-.07.45.45,0,0,0,.2-.21.85.85,0,0,0,.07-.39V39.85h.69v1.73a1.25,1.25,0,0,1-.12.58,1,1,0,0,1-.17.25,1.64,1.64,0,0,1-.25.19,1.61,1.61,0,0,1-.33.12A2.48,2.48,0,0,1,125.07,42.76Z"/><path class="cls-3" d="M128.82,42.68a1.7,1.7,0,0,1-.28.06l-.3,0a1.26,1.26,0,0,1-.59-.12.64.64,0,0,1-.32-.33,1.14,1.14,0,0,1-.07-.42V40.42h-.53v-.57h.53v-.8h.7v.8h.82v.57H128V41.8a.39.39,0,0,0,0,.24.39.39,0,0,0,.35.14l.23,0,.23,0Z"/><path class="cls-3" d="M131.05,40.4H131a1.6,1.6,0,0,0-.56.09.78.78,0,0,0-.37.29v1.91h-.7V39.85h.58l.06.39h0a.92.92,0,0,1,.34-.34,1.05,1.05,0,0,1,.52-.12h.18Z"/><path class="cls-3" d="M133.13,42.38h0l-.14.13-.19.12a.85.85,0,0,1-.24.09.77.77,0,0,1-.27,0,1.16,1.16,0,0,1-.38-.06.91.91,0,0,1-.3-.19.8.8,0,0,1-.2-.28,1,1,0,0,1-.07-.38,1.07,1.07,0,0,1,.08-.41,1,1,0,0,1,.23-.31,1,1,0,0,1,.36-.19,1.64,1.64,0,0,1,.46-.07,1.79,1.79,0,0,1,.34,0l.27.05v-.11a.58.58,0,0,0,0-.19.45.45,0,0,0-.11-.17.68.68,0,0,0-.19-.11.87.87,0,0,0-.3,0,2,2,0,0,0-.42,0,3.85,3.85,0,0,0-.46.14V40a2.44,2.44,0,0,1,.46-.14,2.73,2.73,0,0,1,.5,0,1.84,1.84,0,0,1,.55.07,1.22,1.22,0,0,1,.39.21.9.9,0,0,1,.23.32,1,1,0,0,1,.08.39v1.55c0,.14,0,.26,0,.37h-.63Zm-.06-.9-.23,0-.26,0a.76.76,0,0,0-.4.1.36.36,0,0,0-.15.31.31.31,0,0,0,0,.17.27.27,0,0,0,.09.12.33.33,0,0,0,.13.07.44.44,0,0,0,.16,0,.65.65,0,0,0,.2,0l.17-.07L133,42l.1-.1Z"/><path class="cls-3" d="M134.58,42.69V38.44h.69v4.25Z"/><path class="cls-3" d="M137.52,42.2a2.15,2.15,0,0,0,.43,0l.44-.12v.55a2.36,2.36,0,0,1-.41.12,3.68,3.68,0,0,1-.58,0,2.12,2.12,0,0,1-.57-.08,1.23,1.23,0,0,1-.48-.25A1.26,1.26,0,0,1,136,42a1.65,1.65,0,0,1-.11-.67,1.75,1.75,0,0,1,.11-.67,1.16,1.16,0,0,1,.3-.48,1.1,1.1,0,0,1,.42-.29,1.47,1.47,0,0,1,.5-.09,1.35,1.35,0,0,1,.5.08.93.93,0,0,1,.39.26,1.09,1.09,0,0,1,.26.45,2.08,2.08,0,0,1,.09.65,1.85,1.85,0,0,1,0,.25h-1.86a.9.9,0,0,0,.09.34.69.69,0,0,0,.19.22.9.9,0,0,0,.28.13A1.27,1.27,0,0,0,137.52,42.2Zm-.27-1.88a.47.47,0,0,0-.24,0,.46.46,0,0,0-.18.13.62.62,0,0,0-.12.19,2,2,0,0,0-.05.24h1.11a1,1,0,0,0,0-.24.57.57,0,0,0-.1-.19.48.48,0,0,0-.16-.13A.46.46,0,0,0,137.25,40.32Z"/><path class="cls-3" d="M150.42,11.49c.28.4.5.76.68,1.07h0c0-.51,0-.88,0-1.12V9.67h.72v3.92h-.75l-1.28-1.81c-.22-.31-.46-.67-.7-1.08h0q0,.72,0,1.11v1.78h-.72V9.67h.76Z"/><path class="cls-3" d="M154.11,13.1a2,2,0,0,0,.42,0,3.74,3.74,0,0,0,.45-.12v.56a2.52,2.52,0,0,1-.41.11,3.68,3.68,0,0,1-.58.05,2.12,2.12,0,0,1-.57-.08,1.23,1.23,0,0,1-.48-.25,1.18,1.18,0,0,1-.32-.45,1.62,1.62,0,0,1-.12-.66,1.76,1.76,0,0,1,.12-.68,1.43,1.43,0,0,1,.29-.48,1.36,1.36,0,0,1,.43-.29,1.43,1.43,0,0,1,.5-.09,1.59,1.59,0,0,1,.5.08.93.93,0,0,1,.39.26,1.24,1.24,0,0,1,.26.45,2.15,2.15,0,0,1,.09.66,1.7,1.7,0,0,1,0,.24h-1.86a.81.81,0,0,0,.09.34.71.71,0,0,0,.19.23.79.79,0,0,0,.28.12A1.27,1.27,0,0,0,154.11,13.1Zm-.28-1.88a.59.59,0,0,0-.23,0,.46.46,0,0,0-.18.13.67.67,0,0,0-.12.2.59.59,0,0,0-.05.23h1.11a.85.85,0,0,0,0-.23.93.93,0,0,0-.1-.2.43.43,0,0,0-.17-.13A.52.52,0,0,0,153.83,11.22Z"/><path class="cls-3" d="M157,12.76a.2.2,0,0,0,0-.15.43.43,0,0,0-.13-.09l-.2-.07-.23-.06-.29-.1a.68.68,0,0,1-.25-.14.62.62,0,0,1-.17-.22.81.81,0,0,1-.06-.33,1.07,1.07,0,0,1,.08-.41,1.09,1.09,0,0,1,.23-.29,1.2,1.2,0,0,1,.34-.17,1.77,1.77,0,0,1,.41-.05,2.45,2.45,0,0,1,.48,0,3.63,3.63,0,0,1,.42.11v.57a.83.83,0,0,0-.21-.06l-.21-.05-.22,0h-.21l-.2,0a.37.37,0,0,0-.14.07.18.18,0,0,0-.08.09.36.36,0,0,0,0,.1.25.25,0,0,0,0,.16.3.3,0,0,0,.14.1l.19.07.2,0,.29.09a.82.82,0,0,1,.26.14.62.62,0,0,1,.19.23.74.74,0,0,1,.08.36.93.93,0,0,1-.09.42.83.83,0,0,1-.26.3.89.89,0,0,1-.38.17,2,2,0,0,1-.5.06,2.43,2.43,0,0,1-.49,0,2.22,2.22,0,0,1-.36-.11V13a2.18,2.18,0,0,0,.43.12l.36,0,.24,0a.6.6,0,0,0,.19-.06.45.45,0,0,0,.13-.1A.29.29,0,0,0,157,12.76Z"/><path class="cls-3" d="M160,13.58a1,1,0,0,1-.28.06l-.3,0a1.22,1.22,0,0,1-.58-.12.58.58,0,0,1-.32-.33,1,1,0,0,1-.07-.42V11.32h-.53v-.57h.53V10h.69v.8H160v.57h-.82V12.7a.48.48,0,0,0,.05.24.4.4,0,0,0,.35.14l.24,0L160,13Z"/><path class="cls-3" d="M160.58,13.59V9.35h.69v4.24Z"/><path class="cls-3" d="M163.52,13.1a2,2,0,0,0,.42,0,3.74,3.74,0,0,0,.45-.12v.56a2.52,2.52,0,0,1-.41.11,3.68,3.68,0,0,1-.58.05,2.12,2.12,0,0,1-.57-.08,1.23,1.23,0,0,1-.48-.25,1.18,1.18,0,0,1-.32-.45,1.62,1.62,0,0,1-.12-.66,1.76,1.76,0,0,1,.12-.68,1.43,1.43,0,0,1,.29-.48,1.36,1.36,0,0,1,.43-.29,1.43,1.43,0,0,1,.5-.09,1.59,1.59,0,0,1,.5.08.93.93,0,0,1,.39.26,1.24,1.24,0,0,1,.26.45,2.15,2.15,0,0,1,.09.66,1.7,1.7,0,0,1,0,.24h-1.86a.81.81,0,0,0,.09.34.71.71,0,0,0,.19.23.79.79,0,0,0,.28.12A1.27,1.27,0,0,0,163.52,13.1Zm-.28-1.88a.59.59,0,0,0-.23,0,.46.46,0,0,0-.18.13.67.67,0,0,0-.12.2.86.86,0,0,0-.05.23h1.11a.85.85,0,0,0,0-.23.93.93,0,0,0-.1-.2.43.43,0,0,0-.17-.13A.52.52,0,0,0,163.24,11.22Zm.75-2-.49,1H163l.35-1Z"/></g></g></g></svg>